<?xml version="1.0" encoding="utf-8"?>
<!-- Svg Vector Icons : http://www.onlinewebfonts.com/icon -->
<!DOCTYPE svg PUBLIC "-//W3C//DTD SVG 1.1//EN" "http://www.w3.org/Graphics/SVG/1.1/DTD/svg11.dtd">
<svg version="1.1" xmlns="http://www.w3.org/2000/svg" xmlns:xlink="http://www.w3.org/1999/xlink" x="0px" y="0px" viewBox="0 0 1000 1000" enable-background="new 0 0 1000 1000" xml:space="preserve">
<metadata> Svg Vector Icons : http://www.onlinewebfonts.com/icon </metadata>
<g><g transform="translate(0.000000,507.000000) scale(0.100000,-0.100000)"><path d="M1784.4,4882c-114.8-51.7-204.8-141.6-260.3-256.5l-45.9-95.7V3314.3c0-1181,1.9-1217.3,40.2-1301.6c51.7-114.8,141.6-204.8,256.5-260.3l95.7-45.9H5000h3129.5l95.7,45.9c114.8,55.5,204.8,145.5,256.5,260.3c38.3,84.2,40.2,120.6,40.2,1301.6v1215.4l-45.9,95.7c-53.6,114.8-189.5,243.1-294.8,273.7c-55.5,17.2-857.5,23-3192.7,23C1893.5,4922.1,1870.5,4920.2,1784.4,4882z M8177.3,4577.6c38.3-38.3,38.3-63.2,38.3-1263.3s0-1225-38.3-1263.3s-63.2-38.3-3177.3-38.3c-3114.2,0-3139.1,0-3177.3,38.3s-38.3,63.2-38.3,1263.3s0,1225,38.3,1263.3s63.2,38.3,3177.3,38.3C8114.2,4615.9,8139.1,4615.9,8177.3,4577.6z"/><path d="M2544.3,4290.5c-172.3-44-357.9-183.8-417.3-315.8c-23-49.8-36.4-122.5-36.4-202.9c0-245,126.3-379,572.3-608.7c327.3-168.4,346.4-185.7,346.4-310.1c0-124.4-21.1-158.9-114.8-197.1c-225.9-90-459.4,5.7-490,202.9l-13.4,72.7h-151.2h-153.1l13.4-80.4c30.6-185.7,174.2-373.2,350.3-463.2c231.6-116.8,511.1-68.9,721.6,124.4c111,103.4,149.3,206.7,139.7,379c-13.4,233.5-128.2,348.4-570.4,574.2c-323.5,166.5-344.5,185.7-344.5,310.1s21.1,158.9,114.8,197.1c225.9,90,459.4-5.7,490-202.9l13.4-72.7h151.2h153.1l-13.4,82.3c-32.5,185.7-174.2,371.3-354.1,463.2C2842.8,4298.2,2661,4319.2,2544.3,4290.5z"/><path d="M3621.9,3314.3V2319H3775h153.1v382.8v382.8h306.3h306.3v-382.8V2319h153.1h153.1v995.3v995.3h-153.1h-153.1v-459.4v-459.4h-306.3h-306.3v459.4v459.4H3775h-153.1V3314.3z"/><path d="M5639.3,4292.4c-95.7-24.9-254.6-120.6-315.8-187.6c-30.6-36.4-78.5-109.1-109.1-164.6l-51.7-99.5v-526.4V2788l53.6-101.4c67-128.2,176.1-237.4,304.3-304.3c145.5-74.6,344.5-74.6,490,0c128.2,67,237.3,176.1,304.3,304.3l53.6,101.4v526.4v526.4l-53.6,101.4c-107.2,204.8-302.4,342.6-505.3,357.9C5748.4,4303.9,5671.8,4302,5639.3,4292.4z M5953.2,3953.6c111-82.3,118.7-124.4,118.7-639.3c0-409.6-3.8-476.6-34.5-534c-55.5-111-120.6-145.5-271.8-145.5s-216.3,34.4-273.7,145.5c-30.6,57.4-32.5,116.8-28.7,557c5.7,461.3,7.6,493.8,45.9,545.5c21.1,28.7,68.9,68.9,105.3,88C5700.5,4016.8,5878.6,4007.2,5953.2,3953.6z"/><path d="M6684.4,3314.3V2319h153.1h153.1v382.8v382.8h264.1c235.4,0,271.8,5.7,357.9,45.9c114.8,55.5,204.8,145.5,256.5,260.3c32.5,70.8,40.2,126.3,40.2,306.3c0,191.4-5.7,233.5-45.9,315.8c-53.6,114.8-189.5,243.1-294.8,273.7c-47.9,15.3-225.8,23-480.4,23h-403.9V3314.3z M7564.8,3965.1c34.5-34.4,38.3-63.2,38.3-268c0-313.9,7.7-306.3-344.5-306.3h-268v306.3v306.3h268C7501.7,4003.4,7530.4,3999.6,7564.8,3965.1z"/><path d="M257,1482.6l5.7-991.5l67-122.5c70.8-130.2,199.1-248.8,315.8-290.9l67-24.9v-474.7v-474.7h153.1h153.1v474.7V52.8l65.1,23c36.4,13.4,105.3,53.6,153.1,91.9l90,67l59.3-49.8c239.3-202.9,534-204.8,782.8-7.7l74.6,59.3l80.4-68.9c220.1-189.5,537.8-189.5,758,0l80.4,68.9l80.4-68.9c220.1-189.5,537.8-189.5,758,0l80.4,68.9l80.4-68.9c99.5-86.1,256.5-145.5,379-145.5s279.5,59.3,379,145.5l80.4,68.9l80.4-68.9c220.1-189.5,537.9-189.5,758,0l80.4,68.9l80.4-68.9c99.5-86.1,256.5-145.5,379-145.5s279.4,59.3,379,145.5l80.4,68.9l80.4-68.9c99.5-86.1,256.5-145.5,379-145.5s279.4,59.3,379,145.5l80.4,68.9l80.4-68.9c220.1-189.5,537.9-189.5,758,0l80.4,68.9l59.3-51.7c34.5-26.8,103.4-70.8,153.1-97.6l93.8-45.9v-2000.2v-2000.2H8675h-306.3v1531.2v1531.2H7296.9H6225v-1531.2v-1531.2H4540.6H2856.2v-153.1v-153.1h3215.6h3215.6v2159.1V50.9l84.2,34.4c130.1,53.6,231.6,153.1,302.4,296.7l63.2,128.2l5.7,980l5.7,981.9h-461.3h-459.4V2319v-153.1h306.3h306.3v-807.7c0-733.1-3.8-815.4-34.5-874.7c-55.5-111-120.6-145.5-271.8-145.5s-216.3,34.4-271.8,145.5c-30.6,55.5-34.5,122.5-34.5,491.9v424.9H8675h-153.1V984.9c0-371.3-5.7-426.8-38.3-499.6c-93.8-206.7-442.1-206.7-535.9,0c-32.5,72.7-38.3,128.2-38.3,499.6v415.4h-153.1h-153.1V984.9c0-371.3-5.7-426.8-38.3-499.6c-93.8-206.7-442.1-206.7-535.9,0c-32.5,72.7-38.3,128.2-38.3,499.6v415.4h-153.1h-153.1V984.9c0-371.3-5.7-426.8-38.3-499.6c-28.7-63.2-55.5-90-118.7-118.7c-168.4-76.6-352.2-23-417.3,118.7c-32.5,72.7-38.3,128.2-38.3,499.6v415.4h-153.1h-153.1V984.9c0-371.3-5.7-426.8-38.3-499.6c-93.8-206.7-442.1-206.7-535.9,0c-32.5,72.7-38.3,128.2-38.3,499.6v415.4H5000h-153.1V984.9c0-371.3-5.7-426.8-38.3-499.6c-93.8-206.7-442.1-206.7-535.9,0c-32.5,72.7-38.3,128.2-38.3,499.6v415.4h-153.1h-153.1V984.9c0-371.3-5.7-426.8-38.3-499.6c-93.8-206.7-442.1-206.7-535.9,0c-32.5,72.7-38.3,128.2-38.3,499.6v415.4h-153.1h-153.1V984.9c0-371.3-5.7-426.8-38.3-499.6c-93.8-206.7-442.1-206.7-535.9,0c-32.5,72.7-38.3,128.2-38.3,499.6v415.4h-153.1h-153.1V975.3c0-468.9-9.6-516.8-120.6-597.2c-78.5-57.4-292.9-57.4-371.3,0c-111,80.4-120.6,128.2-120.6,597.2v424.9H1325h-153.1V975.3c0-468.9-9.6-516.8-120.6-597.2c-78.5-57.4-292.9-57.4-371.3,0c-120.6,88.1-120.6,88.1-120.6,980v807.7h306.3h306.2V2319v153.1H712.5H251.2L257,1482.6z M8062.5-2581v-1378.1h-765.6h-765.6v612.5v612.5h153.1h153.1v153.1v153.1h-153.1h-153.1v612.5v612.5h765.6h765.6V-2581z"/><path d="M1409.2-921.5c-47.9-26.8-145.5-145.5-388.6-470.9C523-2060.4,203.4-2644.1,124.9-3025C0.5-3635.6,431.1-4146.7,1143.2-4236.6c195.2-24.9,181.8-11.5,181.8-181.8v-153.1H712.5H100v-105.3v-105.3h4900h4900v105.3v105.3H5765.6H1631.2v153.1c0,170.4-13.4,157,181.8,181.8c438.3,55.5,788.6,273.7,937.9,587.6c99.5,206.7,124.4,405.8,78.5,624c-86.1,423-419.2,1006.8-1039.3,1824.1C1566.2-906.2,1508.7-864.1,1409.2-921.5z M1644.7-1503.4c359.8-480.4,597.2-851.8,750.3-1173.3c126.3-266.1,162.7-409.6,149.3-597.2c-26.8-394.3-287.1-616.3-792.4-675.7l-120.6-13.4v537.9v537.8h-153.1H1325v-535.9v-535.9h-42.1c-88,1.9-335,55.5-442.1,95.7C580.4-3765.8,431.1-3561,412-3277.7c-7.7,107.2-1.9,187.6,21.1,275.6c61.2,241.2,319.6,719.7,610.6,1129.3c176.1,248.8,421.1,574.2,434.5,574.2C1483.9-1298.6,1558.5-1390.4,1644.7-1503.4z"/><path d="M2243.7-1049.7v-153.1h612.5h612.5v-918.8v-918.7h-153.1h-153.1v-153.1v-153.1h1071.9h1071.9v1225v1225H3775H2243.7V-1049.7z M5000-2121.6v-918.7h-612.5H3775v918.7v918.8h612.5H5000V-2121.6z"/></g></g>
</svg>